<svg xmlns="http://www.w3.org/2000/svg" width="20" height="20" fill="none" xmlns:v="https://vecta.io/nano"><path d="M9.998 2c3.149 0 5.744 2.335 5.984 5.355l.013.222.005.225-.001 3.596.925 2.222c.023.054.04.11.053.167l.015.086.009.131a1 1 0 0 1-.749.963l-.116.027-.134.01-3.502-.001-.005.161a2.5 2.5 0 0 1-4.989-.001l-.006-.16-3.501.001a1 1 0 0 1-.26-.034l-.124-.043a1 1 0 0 1-.602-1.052l.021-.127.042-.128.923-2.219L4 7.793l.004-.225C4.127 4.451 6.771 2 9.998 2zM11.5 15.004h-3l.007.141a1.5 1.5 0 0 0 1.349 1.348L10 16.5a1.5 1.5 0 0 0 1.493-1.355l.006-.141zM9.998 3c-2.623 0-4.77 1.924-4.981 4.385l-.013.212L5 7.802V11.5l-.038.192-.963 2.312 11.958.002.045-.002-.963-2.312L15 11.5V7.812l-.004-.204C14.891 5.035 12.695 3 9.998 3z" fill="#212121"/></svg>