<svg xmlns="http://www.w3.org/2000/svg" width="24" height="24" fill="none" xmlns:v="https://vecta.io/nano"><path d="M18.492 2.331l3.179 3.179a2.25 2.25 0 0 1 0 3.182l-2.584 2.584A2.25 2.25 0 0 1 21 13.501v5.25a2.25 2.25 0 0 1-2.25 2.25H5.25A2.25 2.25 0 0 1 3 18.751v-13.5a2.25 2.25 0 0 1 2.25-2.25h5.25a2.25 2.25 0 0 1 2.225 1.915l2.585-2.585a2.25 2.25 0 0 1 3.182 0zM4.5 18.751a.75.75 0 0 0 .75.75l5.999-.001.001-6.749-6.75-.001v6.001zm8.249.749l6.001.001a.75.75 0 0 0 .75-.75v-5.25a.75.75 0 0 0-.75-.75l-6.001-.001v6.75zM10.5 4.501H5.25a.75.75 0 0 0-.75.75v5.999h6.75V5.251a.75.75 0 0 0-.75-.75zm2.25 4.809v1.941l1.94-.001-1.94-1.94zm3.621-5.918L13.192 6.57a.75.75 0 0 0 0 1.061l3.179 3.179a.75.75 0 0 0 1.061 0l3.179-3.179a.75.75 0 0 0 0-1.061l-3.179-3.179a.75.75 0 0 0-1.061 0z" fill="#212121"/></svg>