<svg xmlns="http://www.w3.org/2000/svg" width="20" height="20" fill="none" xmlns:v="https://vecta.io/nano"><path d="M4.336 12H4a2 2 0 0 0-2 2v2a2 2 0 0 0 2 2h12a2 2 0 0 0 2-2v-2c0-.539-.213-1.029-.561-1.389-.079.402-.234.805-.465 1.162.017.073.026.149.026.227v2a1 1 0 0 1-1 1H4a1 1 0 0 1-1-1v-2a1 1 0 0 1 1-1h1.336l-1-1zm10.041-2.833l-.003.004-.211.255-.458.642C13.386 10.564 13 11.295 13 12c0 1.009.672 2 1.75 2s1.75-.991 1.75-2c0-.705-.386-1.436-.704-1.932l-.458-.642-.207-.25-.017-.02A.47.47 0 0 0 14.75 9a.5.5 0 0 0-.373.167zm.373 1.14l.204.3c.306.478.546.997.546 1.393 0 .293-.1.566-.248.749-.136.167-.299.251-.502.251s-.366-.084-.502-.251C14.1 12.566 14 12.293 14 12c0-.396.24-.915.546-1.393l.204-.3zM8.5 1a.5.5 0 0 0-.5.5v1.561a1.99 1.99 0 0 0-.8.49L3.664 7.086a2 2 0 0 0 0 2.828l2.828 2.828a2 2 0 0 0 2.828 0l3.536-3.535a2 2 0 0 0 0-2.828L10.028 3.55A1.99 1.99 0 0 0 9 3.002V1.5a.5.5 0 0 0-.5-.5zM8 4.175V5.5a.5.5 0 1 0 1 0V4.042c.117.049.226.121.321.216l2.828 2.828c.12.12.203.263.249.414H4.664l3.243-3.243A1.01 1.01 0 0 1 8 4.175zM4.371 9.207c-.195-.195-.293-.451-.293-.707h8.071l-3.536 3.536a1 1 0 0 1-1.414 0L4.371 9.207zm10.005-.039l.001-.001z" fill="#212121"/></svg>