<svg xmlns="http://www.w3.org/2000/svg" width="24" height="24" fill="none" xmlns:v="https://vecta.io/nano"><path d="M6.25 3A2.25 2.25 0 0 0 4 5.25v2.5A2.25 2.25 0 0 0 6.25 10h9.5A2.25 2.25 0 0 0 18 7.75v-2.5A2.25 2.25 0 0 0 15.75 3h-9.5zM5.5 5.25a.75.75 0 0 1 .75-.75h9.5a.75.75 0 0 1 .75.75v2.5a.75.75 0 0 1-.75.75h-9.5a.75.75 0 0 1-.75-.75v-2.5zM8.7 16c-.387 0-.7.336-.7.75s.313.75.7.75h4.6c.387 0 .7-.336.7-.75s-.313-.75-.7-.75H8.7zm8.653.445l-.073.084a.75.75 0 0 1-.977.073l-.084-.073-2-2a.75.75 0 0 1-.073-.977l.073-.084 2-2a.75.75 0 0 1 1.133.976l-.073.084-.719.721h1.5a1.25 1.25 0 0 0 1.244-1.122l.006-.128V9.75a.75.75 0 0 1 1.493-.102l.007.102V12a2.75 2.75 0 0 1-2.582 2.745l-.168.005h-1.498l.718.719a.75.75 0 0 1 .073.976zM18 19.25v-2.026l-.013.013c-.406.406-.96.57-1.487.495v1.519a.75.75 0 0 1-.75.75h-9.5a.75.75 0 0 1-.75-.75v-5a.75.75 0 0 1 .75-.75h6.823c.057-.192.147-.376.271-.543l.022-.03.121-.14.788-.788H6.25A2.25 2.25 0 0 0 4 14.25v5a2.25 2.25 0 0 0 2.25 2.25h9.5A2.25 2.25 0 0 0 18 19.25z" fill="#212121"/></svg>