<svg xmlns="http://www.w3.org/2000/svg" width="20" height="20" fill="none" xmlns:v="https://vecta.io/nano"><path d="M6 2a2 2 0 0 0-2 2v5h1V4a1 1 0 0 1 1-1h4v3.5A1.5 1.5 0 0 0 11.5 8H15v8a1 1 0 0 1-1 1h-3.035c-.051.353-.154.689-.301 1H14a2 2 0 0 0 2-2V7.414a1.5 1.5 0 0 0-.439-1.061l-3.914-3.914A1.5 1.5 0 0 0 10.586 2H6zm8.793 5H11.5a.5.5 0 0 1-.5-.5V3.207L14.793 7zM1 12.5A2.5 2.5 0 0 1 3.5 10h4a2.5 2.5 0 0 1 2.5 2.5v4a2.49 2.49 0 0 1-.414 1.379l-3.025-3.025a1.5 1.5 0 0 0-2.121 0l-3.025 3.025A2.49 2.49 0 0 1 1 16.5v-4zm7 .25a.75.75 0 1 0-1.5 0 .75.75 0 1 0 1.5 0zm-5.879 5.836A2.49 2.49 0 0 0 3.5 19h4a2.49 2.49 0 0 0 1.379-.414l-3.025-3.025a.5.5 0 0 0-.707 0l-3.025 3.025z" fill="#212121"/></svg>