<svg xmlns="http://www.w3.org/2000/svg" width="20" height="20" fill="none" xmlns:v="https://vecta.io/nano"><path d="M14 7.5a1.5 1.5 0 1 1-3 0 1.5 1.5 0 1 1 3 0zm-1 0a.5.5 0 1 0-1 0 .5.5 0 1 0 1 0zM3 6a3 3 0 0 1 3-3h8a3 3 0 0 1 3 3v8a3 3 0 0 1-3 3H6a3 3 0 0 1-3-3V6zm3-2a2 2 0 0 0-2 2v8a1.99 1.99 0 0 0 .279 1.02l4.669-4.588a1.5 1.5 0 0 1 2.103 0l4.669 4.588A1.99 1.99 0 0 0 16 14V6a2 2 0 0 0-2-2H6zm0 12h8a1.99 1.99 0 0 0 1.012-.274l-4.661-4.58a.5.5 0 0 0-.701 0l-4.661 4.58A1.99 1.99 0 0 0 6 16z" fill="#212121"/></svg>