<svg xmlns="http://www.w3.org/2000/svg" width="20" height="20" fill="none" xmlns:v="https://vecta.io/nano"><path d="M5.122.282l-.348 1.071c-.108.326-.291.621-.534.864a2.21 2.21 0 0 1-.865.533l-1.072.348-.021.005c-.083.029-.154.083-.205.155S2 3.415 2 3.503s.027.173.078.244.122.125.205.155l1.072.348a2.21 2.21 0 0 1 .865.533c.243.243.426.538.534.864l.348 1.071c.029.083.083.154.155.205S5.412 7 5.5 7s.173-.027.245-.078l.021-.016c.061-.049.108-.115.134-.189l.348-1.071.063-.168c.11-.261.269-.498.47-.699l.118-.11a2.21 2.21 0 0 1 .747-.426l1.072-.348c.083-.029.154-.083.205-.155S9 3.585 9 3.497s-.027-.173-.078-.244-.122-.125-.205-.155L7.646 2.75a2.21 2.21 0 0 1-.852-.537c-.239-.242-.418-.537-.525-.86L5.921.282C5.891.2 5.837.128 5.766.078S5.609 0 5.521 0s-.173.027-.244.078-.126.122-.155.205zM.217 8.213l.765-.249c.233-.077.444-.208.618-.381s.304-.385.381-.617l.249-.765c.021-.059.059-.11.11-.146S2.453 6 2.515 6s.124.019.175.056.09.087.11.146l.249.765c.076.231.204.441.375.614s.379.305.609.384l.765.249c.059.021.11.059.146.11S5 8.436 5 8.498s-.019.123-.056.175-.087.09-.146.11l-.765.249c-.233.078-.445.209-.618.383s-.304.386-.381.619l-.249.765c-.021.059-.059.11-.11.146S2.563 11 2.5 11s-.124-.019-.175-.056-.09-.087-.11-.146l-.249-.765c-.077-.232-.208-.444-.381-.617S1.2 9.113.967 9.035l-.765-.249c-.059-.021-.11-.059-.146-.11S0 8.564 0 8.502s.019-.123.056-.175.087-.09.146-.11l.015-.004zM3 14v-2.099a1.32 1.32 0 0 0 .244-.131c.22-.16.38-.371.48-.621l.26-.801.015-.039V14a1.99 1.99 0 0 0 .279 1.02l4.669-4.588a1.5 1.5 0 0 1 2.103 0l4.669 4.588A1.99 1.99 0 0 0 16 14V6a2 2 0 0 0-2-2H9.909A1.42 1.42 0 0 0 10 3.496 1.42 1.42 0 0 0 9.912 3H14a3 3 0 0 1 3 3v8a3 3 0 0 1-3 3H6a3 3 0 0 1-3-3zm11-6.5a1.5 1.5 0 1 1-3 0 1.5 1.5 0 1 1 3 0zm-1 0a.5.5 0 1 0-1 0 .5.5 0 1 0 1 0zm1 8.5a1.99 1.99 0 0 0 1.012-.274l-4.661-4.58a.5.5 0 0 0-.701 0l-4.661 4.58A1.99 1.99 0 0 0 6 16h8z" fill="#212121"/></svg>