<svg xmlns="http://www.w3.org/2000/svg" height="100%" stroke-miterlimit="10" viewBox="0 0 30.667 25.333" width="100%" fill-rule="nonzero" stroke-linecap="round" stroke-linejoin="round" xmlns:v="https://vecta.io/nano"><clipPath id="A"><path d="M0 0h30.667v25.333H0z"/></clipPath><g clip-path="url(#A)"><clipPath clip-rule="nonzero" id="B"><path d="M1.333 25.333h29.333V2.667H1.333v22.667z"/></clipPath><g clip-path="url(#B)"><clipPath clip-rule="nonzero" id="C"><path d="M0 32h32V0H0v32z"/></clipPath><g clip-path="url(#C)" fill="#212121"><path d="M2.617 22.288c-2.617 9.712 26.765 0 26.765 0 .599 0 1.085.485 1.085 1.085 0 .549-.408 1.004-.939 1.076l-.147.009H2.617c-.6 0-1.085-.485-1.085-1.085 0-.549.408-1.004.937-1.076l.147-.009h26.765S0 32 2.617 22.288zm22.427-19.02c1.398.001 2.531 1.134 2.532 2.532v3.548 9.685c-.001 1.398-1.134 2.531-2.532 2.532H20.38 6.957c-1.398-.001-2.531-1.134-2.532-2.532V5.8c.001-1.398 1.134-2.531 2.532-2.532h18.087zm0 2.171H6.957a.36.36 0 0 0-.361.361v13.233a.36.36 0 0 0 .361.361h18.087a.36.36 0 0 0 .361-.361V5.8c0-.2-.361-.361-.361-.361zm-8.592 9.557a.28.28 0 0 0-.452.222v3.18c0 .266.335.383.5.175l.785-.991c.059-.075.147-.117.242-.117h1.281c.268 0 .383-.337.173-.502l-2.526-1.966-.002-.002z"/></g></g><g fill="#212121"><path d="M16.452 7.872A2.08 2.08 0 0 1 18.53 9.95v.111L21 8.579a.48.48 0 0 1 .726.411v7.353a.48.48 0 0 1-.726.411l-2.47-1.482v.112a2.08 2.08 0 0 1-2.078 2.077h-5.434a2.08 2.08 0 0 1-2.078-2.077V9.95a2.08 2.08 0 0 1 2.078-2.078h5.434zm0 .959h-5.434A1.12 1.12 0 0 0 9.9 9.95v5.434a1.12 1.12 0 0 0 1.119 1.119h5.434a1.12 1.12 0 0 0 1.119-1.119V9.95a1.12 1.12 0 0 0-1.119-1.119zm4.315 1.006L18.53 11.18v2.973l2.237 1.342V9.837zm-6.757.561c-.043-.013-.09-.005-.126.021s-.058.069-.058.114v2.817a.92.92 0 0 0-.64-.257c-.51 0-.924.414-.924.924s.414.924.924.924.924-.414.924-.924l-.002-.051.002-2.103 1.665.512c.043.013.09.005.126-.021s.058-.069.058-.114v-.718a.71.71 0 0 0-.502-.679l-1.447-.445zm1.665 1.65l-1.564-.481v-.84l1.263.388c.179.055.301.221.301.408v.525zm-3.129 1.97a.64.64 0 1 1 1.28 0 .64.64 0 1 1-1.28 0z"/></g></g></svg>