<svg xmlns="http://www.w3.org/2000/svg" width="16" height="16" fill="none" xmlns:v="https://vecta.io/nano"><path d="M7 4.501v5a2.5 2.5 0 0 1-.732 1.768 2.5 2.5 0 0 1-1.768.732 2.5 2.5 0 0 1-2.5-2.5v-.5a.5.5 0 0 1 .5-.5.5.5 0 0 1 .5.5v.5a1.5 1.5 0 0 0 1.5 1.5 1.5 1.5 0 0 0 1.5-1.5v-5a.5.5 0 0 1 .5-.5.5.5 0 0 1 .5.5zm3.676 3.032C9.633 7.142 9 6.86 9 6.251c0-.923.808-1.25 1.5-1.25s1.5.327 1.5 1.25a.5.5 0 0 0 .5.5.5.5 0 0 0 .5-.5 2.28 2.28 0 0 0-.755-1.675 2.28 2.28 0 0 0-.812-.471c-.558-.184-1.308-.184-1.866 0a2.28 2.28 0 0 0-1.366 1.229A2.28 2.28 0 0 0 8 6.251c0 1.347 1.289 1.83 2.324 2.218S12 9.142 12 9.751c0 .923-.808 1.25-1.5 1.25S9 10.674 9 9.751a.5.5 0 0 0-.5-.5.5.5 0 0 0-.5.5 2.28 2.28 0 0 0 .755 1.675 2.28 2.28 0 0 0 1.745.575 2.28 2.28 0 0 0 1.745-.575A2.28 2.28 0 0 0 13 9.751c0-1.35-1.289-1.83-2.324-2.218z" fill="#212121"/></svg>