<svg xmlns="http://www.w3.org/2000/svg" height="100%" stroke-miterlimit="10" viewBox="0 0 22 19.5" width="100%" fill-rule="nonzero" stroke-linecap="round" stroke-linejoin="round" fill="#212121" xmlns:v="https://vecta.io/nano"><path d="M12.75 2.25A3.25 3.25 0 0 1 16 5.5v.173l3.864-2.318A.75.75 0 0 1 21 3.998V15.5a.75.75 0 0 1-1.136.643L16 13.825V14a3.25 3.25 0 0 1-3.25 3.25h-8.5A3.25 3.25 0 0 1 1 14V5.5a3.25 3.25 0 0 1 3.25-3.25h8.5zm0 1.5h-8.5A1.75 1.75 0 0 0 2.5 5.5V14a1.75 1.75 0 0 0 1.75 1.75h8.5A1.75 1.75 0 0 0 14.5 14V5.5a1.75 1.75 0 0 0-1.75-1.75zm6.75 1.573L16 7.425v4.651l3.5 2.1V5.323zm-10.571.878c-.067-.021-.141-.008-.198.034s-.09.108-.09.179v4.407a1.44 1.44 0 0 0-1.001-.403c-.799 0-1.446.647-1.446 1.446s.647 1.446 1.446 1.446 1.446-.647 1.446-1.446l-.002-.08.002-.031V8.494l2.604.801c.067.021.141.008.198-.034s.09-.108.09-.179V7.96a1.11 1.11 0 0 0-.785-1.063L8.929 6.2zm2.604 2.581l-2.447-.753V6.714l1.976.608c.28.086.471.345.471.638v.821zm-4.894 3.082a1.001 1.001 0 1 1 2.002 0 1.001 1.001 0 1 1-2.002 0z"/></svg>