<svg xmlns="http://www.w3.org/2000/svg" width="24" height="24" fill="none" xmlns:v="https://vecta.io/nano"><path d="M3 6.75A.75.75 0 0 1 3.75 6h3.257a3.75 3.75 0 0 1 2.652 1.098l2.95 2.95a3.25 3.25 0 0 0 2.298.952h4.531L15.72 7.28a.75.75 0 0 1 1.061-1.06l4.998 5a.75.75 0 0 1 0 1.06l-4.998 5a.75.75 0 0 1-1.061-1.06l3.718-3.72h-4.471a3.25 3.25 0 0 0-2.356 1.012l-2.68 2.821A3.75 3.75 0 0 1 7.212 17.5H3.75a.75.75 0 1 1 0-1.5h3.462a2.25 2.25 0 0 0 1.631-.7l2.68-2.821a4.75 4.75 0 0 1 .852-.709c-.297-.187-.575-.408-.827-.66l-2.95-2.95A2.25 2.25 0 0 0 7.007 7.5H3.75A.75.75 0 0 1 3 6.75z" fill="#212121"/></svg>