<svg xmlns="http://www.w3.org/2000/svg" width="20" height="20" fill="none" xmlns:v="https://vecta.io/nano"><path d="M6 3a2 2 0 0 0-2 2v4.256c.318-.113.653-.19 1-.229V5a1 1 0 0 1 1-1h7a1 1 0 0 1 1 1v11h-3.879l1 1H15a3 3 0 0 0 3-3v-2h-3V5a2 2 0 0 0-2-2H6zm2.329 7H11.5a.5.5 0 1 0 0-1h-4a.5.5 0 0 0-.447.275c.466.171.896.418 1.275.725zM15 16v-3h2v1a2 2 0 0 1-2 2zM7.5 6a.5.5 0 1 0 0 1h4a.5.5 0 1 0 0-1h-4zm-2 11c.786 0 1.512-.259 2.096-.697l2.55 2.55a.5.5 0 1 0 .707-.707l-2.55-2.55c.438-.584.697-1.31.697-2.096a3.5 3.5 0 1 0-7 0A3.5 3.5 0 0 0 5.5 17zm0-1a2.5 2.5 0 1 1 0-5 2.5 2.5 0 1 1 0 5z" fill="#212121"/></svg>