<svg xmlns="http://www.w3.org/2000/svg" width="24" height="24" fill="none" xmlns:v="https://vecta.io/nano"><path d="M19.698 2.148A.75.75 0 0 1 20 2.75v13.5c0 .027-.001.053-.004.079L20 16.5a3.5 3.5 0 1 1-7 0 3.5 3.5 0 0 1 3.5-3.5c.744 0 1.433.232 2 .627V7.758l-8.5 2.55v7.942c0 .027-.001.053-.004.079L10 18.5a3.5 3.5 0 1 1-7 0A3.5 3.5 0 0 1 6.5 15c.744 0 1.433.232 2 .627V5.75a.75.75 0 0 1 .534-.718l10-3a.75.75 0 0 1 .663.117zM10 8.742l8.5-2.55V3.758L10 6.308v2.434zM6.5 16.5a2 2 0 1 0 0 4 2 2 0 1 0 0-4zm8 0a2 2 0 1 0 4 0 2 2 0 1 0-4 0z" fill="#212121"/></svg>