<svg xmlns="http://www.w3.org/2000/svg" width="24" height="24" fill="none" xmlns:v="https://vecta.io/nano"><path d="M11.409 10.946a4.93 4.93 0 0 1 .541 6.326l-.141.19 4.217 4.218.075.087c.225.303.2.732-.075 1.007s-.704.3-1.007.075l-.087-.075-4.257-4.256a4.93 4.93 0 0 1-6.233-.605c-1.924-1.924-1.924-5.042 0-6.966s5.042-1.924 6.966 0zM13.129 2a2.25 2.25 0 0 1 1.591.659l2.812 2.81 2.808 2.812a2.25 2.25 0 0 1 .658 1.59v9.879a2.25 2.25 0 0 1-2.25 2.25l-1.509.001c-.037-.293-.148-.579-.334-.83l-.121-.144-.527-.528 2.491.001a.75.75 0 0 0 .75-.75l-.001-9.747-4.246.001a2.25 2.25 0 0 1-2.245-2.096L13 7.754V3.5H7.25a.75.75 0 0 0-.75.75v4.421c-.519.123-1.024.317-1.501.582L5 4.25A2.25 2.25 0 0 1 7.25 2h5.879zM5.536 12.04a3.38 3.38 0 0 0 0 4.779 3.38 3.38 0 0 0 4.779-4.779 3.38 3.38 0 0 0-4.779 0zM14.5 4.56v3.194a.75.75 0 0 0 .648.743l.102.007 3.191-.001L14.5 4.56z" fill="#212121"/></svg>