<svg xmlns="http://www.w3.org/2000/svg" width="24" height="24" fill="none" xmlns:v="https://vecta.io/nano"><path d="M12.012 2.25a10.58 10.58 0 0 1 2.182.253.75.75 0 0 1 .582.649l.17 1.527c.077.701.669 1.232 1.375 1.233a1.36 1.36 0 0 0 .553-.117l1.401-.615a.75.75 0 0 1 .849.174c1.012 1.081 1.766 2.378 2.205 3.792a.75.75 0 0 1-.271.826l-1.241.915a1.38 1.38 0 0 0 .001 2.226l1.242.915a.75.75 0 0 1 .271.826 9.8 9.8 0 0 1-2.204 3.792.75.75 0 0 1-.849.174l-1.406-.616a1.38 1.38 0 0 0-1.926 1.113l-.169 1.527a.75.75 0 0 1-.572.647 9.52 9.52 0 0 1-4.406 0 .75.75 0 0 1-.572-.647l-.169-1.524a1.38 1.38 0 0 0-1.925-1.111l-1.407.616a.75.75 0 0 1-.849-.175 9.8 9.8 0 0 1-2.204-3.796.75.75 0 0 1 .272-.825l1.243-.916a1.38 1.38 0 0 0 0-2.226l-1.243-.914a.75.75 0 0 1-.272-.826c.439-1.414 1.193-2.711 2.205-3.792a.75.75 0 0 1 .849-.174l1.4.615c.403.177.866.15 1.248-.073s.634-.608.682-1.045l.17-1.526a.75.75 0 0 1 .583-.649c.717-.16 1.449-.244 2.201-.253zm0 1.5c-.454.005-.907.045-1.355.117l-.109.977c-.102.91-.629 1.717-1.418 2.175-.794.464-1.763.52-2.606.15l-.898-.395c-.572.694-1.027 1.477-1.348 2.317l.798.587a2.88 2.88 0 0 1 .001 4.643l-.799.589a8.3 8.3 0 0 0 1.348 2.321l.905-.396a2.88 2.88 0 0 1 2.592.144c.792.457 1.321 1.262 1.424 2.173l.109.984c.89.151 1.799.151 2.688 0l.109-.984a2.88 2.88 0 0 1 4.019-2.322l.904.396a8.3 8.3 0 0 0 1.348-2.318l-.798-.588a2.88 2.88 0 0 1-.001-4.643l.797-.587c-.321-.84-.776-1.623-1.348-2.318l-.896.394c-.365.162-.761.245-1.16.244-1.47-.002-2.703-1.108-2.864-2.568l-.109-.977a8.99 8.99 0 0 0-1.334-.117zM12 8.25a3.75 3.75 0 1 1 0 7.5 3.75 3.75 0 1 1 0-7.5zm0 1.5a2.25 2.25 0 1 0 0 4.5 2.25 2.25 0 1 0 0-4.5z" fill="#212121"/></svg>