<svg xmlns="http://www.w3.org/2000/svg" width="24" height="24" fill="none" xmlns:v="https://vecta.io/nano"><path d="M8.406 3.532l-.26 1.34a1.75 1.75 0 0 1-2.289 1.322l-1.293-.446c-.235.32-.436.666-.598 1.033l1.035.898a1.75 1.75 0 0 1 0 2.643l-1.035.898c.162.367.363.713.598 1.033l1.294-.447a1.75 1.75 0 0 1 2.289 1.322l.26 1.341c.392.042.803.042 1.195-.001l.259-1.34a1.75 1.75 0 0 1 2.289-1.322l1.287.444c.235-.321.437-.668.599-1.036l-1.029-.893a1.75 1.75 0 0 1 0-2.643l1.029-.893a5.49 5.49 0 0 0-.599-1.036l-1.287.444a1.75 1.75 0 0 1-2.289-1.322l-.259-1.339c-.392-.043-.803-.043-1.196-.001zm-.783-1.396a7.03 7.03 0 0 1 2.762.002.75.75 0 0 1 .588.593l.36 1.857a.25.25 0 0 0 .327.189l1.784-.616a.75.75 0 0 1 .807.213 6.99 6.99 0 0 1 1.384 2.395.75.75 0 0 1-.219.805l-1.426 1.238a.25.25 0 0 0 0 .378l1.427 1.238a.75.75 0 0 1 .219.806c-.3.893-.775 1.704-1.383 2.395a.75.75 0 0 1-.807.213l-1.785-.616a.25.25 0 0 0-.327.189l-.36 1.857a.75.75 0 0 1-.589.593 7.03 7.03 0 0 1-2.762.002.75.75 0 0 1-.59-.593l-.36-1.859a.25.25 0 0 0-.327-.189l-1.791.618a.75.75 0 0 1-.807-.213c-.608-.689-1.083-1.5-1.384-2.391a.75.75 0 0 1 .219-.806l1.433-1.244a.25.25 0 0 0 0-.378L2.585 7.568a.75.75 0 0 1-.219-.806c.301-.892.776-1.702 1.384-2.391a.75.75 0 0 1 .807-.213l1.791.618a.25.25 0 0 0 .327-.189l.36-1.858a.75.75 0 0 1 .59-.593zm6.317 12.498c-.192-.066-.406-.012-.529.15a4.5 4.5 0 0 0-.559.966c-.079.187-.019.4.134.533l1.007.874c.209.181.209.505 0 .687l-1.007.874c-.153.133-.213.346-.134.533.146.346.335.67.559.966.122.162.337.216.529.15l1.26-.435c.261-.09.542.072.595.343l.253 1.309c.039.199.194.358.395.383.182.023.368.034.557.034a4.53 4.53 0 0 0 .557-.034c.201-.025.356-.184.395-.383l.253-1.309c.053-.271.333-.433.595-.343l1.26.435c.192.066.406.012.529-.15.224-.296.412-.62.559-.966.079-.187.019-.4-.134-.533l-1.007-.874c-.209-.181-.209-.505 0-.687l1.007-.874c.153-.133.213-.346.134-.533-.146-.346-.335-.67-.559-.966-.123-.162-.337-.216-.529-.15l-1.259.435c-.261.09-.542-.072-.595-.343l-.253-1.308c-.039-.199-.194-.358-.395-.383-.183-.023-.369-.034-.557-.034s-.375.012-.557.034c-.201.025-.356.184-.395.383l-.253 1.308c-.053.271-.333.433-.595.343l-1.259-.435zM17 18.751a1.25 1.25 0 1 1 0-2.501 1.25 1.25 0 1 1 0 2.501zM8 9a1 1 0 0 1 2 0 1 1 0 0 1-2 0zm1-2.5a2.5 2.5 0 0 0 0 5 2.5 2.5 0 0 0 0-5z" fill="#212121"/></svg>