<svg xmlns="http://www.w3.org/2000/svg" width="20" height="20" fill="none" xmlns:v="https://vecta.io/nano"><path d="M9.723 2.084a.5.5 0 0 1 .555 0c1.938 1.292 4.034 2.098 6.293 2.421A.5.5 0 0 1 17 5v4.5c0 3.891-2.307 6.731-6.82 8.467a.5.5 0 0 1-.359 0C5.307 16.231 3 13.391 3 9.5V5a.5.5 0 0 1 .429-.495 15.05 15.05 0 0 0 6.293-2.421zm-.124 1.262A15.97 15.97 0 0 1 4 5.428V9.5c0 3.392 1.968 5.863 6 7.463 4.032-1.6 6-4.071 6-7.463V5.428a15.97 15.97 0 0 1-5.599-2.082L10 3.097l-.401.249z" fill="#212121"/></svg>