<svg xmlns="http://www.w3.org/2000/svg" width="24" height="24" fill="none" xmlns:v="https://vecta.io/nano"><path d="M8 7.752v5.497a.75.75 0 0 0 1.155.631l4.618-2.959a.5.5 0 0 0 0-.842L9.155 7.12A.75.75 0 0 0 8 7.752zM5.25 3A3.25 3.25 0 0 0 2 6.25v9a3.25 3.25 0 0 0 3.25 3.25h10.5A3.25 3.25 0 0 0 19 15.25v-9A3.25 3.25 0 0 0 15.75 3H5.25zM3.5 6.25A1.75 1.75 0 0 1 5.25 4.5h10.5a1.75 1.75 0 0 1 1.75 1.75v9A1.75 1.75 0 0 1 15.75 17H5.25a1.75 1.75 0 0 1-1.75-1.75v-9zM5.011 19.5c.578.902 1.588 1.5 2.739 1.5h8.5a5.25 5.25 0 0 0 5.25-5.25v-7c0-1.151-.598-2.162-1.5-2.739v9.739a3.75 3.75 0 0 1-3.75 3.75H5.011z" fill="#212121"/></svg>