<svg xmlns="http://www.w3.org/2000/svg" width="48" height="48" fill="none" xmlns:v="https://vecta.io/nano"><path d="M4.039 16.464l-.044-.049.011.001-.078-.088-.122-.134a3.78 3.78 0 0 0-1.484-.918l-1.837-.6a.73.73 0 0 1-.351-.265.73.73 0 0 1-.133-.419.73.73 0 0 1 .133-.419.73.73 0 0 1 .351-.264l1.837-.6a3.79 3.79 0 0 0 1.462-.921 3.85 3.85 0 0 0 .244-.311 4.59 4.59 0 0 0 .35-.505c.115-.195.212-.4.29-.613l.612-1.881a.73.73 0 0 1 .265-.351c.123-.087.269-.133.419-.133s.297.046.42.133c.036.03.07.064.1.1.07.071.125.156.161.25l.6 1.835a3.76 3.76 0 0 0 .915 1.481c.416.416.924.729 1.482.915l1.837.6.037.009a.73.73 0 0 1 .351.265.72.72 0 0 1 0 .837.73.73 0 0 1-.351.265l-1.837.6a3.78 3.78 0 0 0-1.481.919 3.79 3.79 0 0 0-.916 1.481l-.6 1.836-.017.045a.72.72 0 0 1-.167.206c-.012.013-.022.028-.032.043-.014.021-.028.042-.049.057a.73.73 0 0 1-.419.133.74.74 0 0 1-.22-.034c-.071-.023-.139-.057-.2-.1a.76.76 0 0 1-.16-.155c-.045-.061-.081-.128-.105-.2l-.6-1.836a3.79 3.79 0 0 0-.6-1.13 1.24 1.24 0 0 0-.074-.085zm24.202-.707a6 6 0 0 1 0 8.484 6 6 0 0 1-8.486 0 6 6 0 0 1 0-8.484 6 6 0 0 1 8.486 0zm-6.718 1.768a3.5 3.5 0 0 0 0 4.949 3.5 3.5 0 0 0 4.95 0 3.5 3.5 0 0 0 0-4.949 3.5 3.5 0 0 0-4.95 0zM40.25 8H8.589l.549 1.688a1.8 1.8 0 0 0 .43.7.71.71 0 0 0 .082.066l.063.048H40.25a1.25 1.25 0 0 1 1.25 1.25v24.496a1.25 1.25 0 0 1-1.25 1.25h-6.251v-6.251a3.25 3.25 0 0 0-3.25-3.25H17.246a3.25 3.25 0 0 0-2.298.952 3.25 3.25 0 0 0-.952 2.298v6.249H7.745a1.25 1.25 0 0 1-1.25-1.25V21.948c-.165.033-.332.051-.5.053a2.71 2.71 0 0 1-1.574-.5 2.65 2.65 0 0 1-.426-.414v15.159a3.75 3.75 0 0 0 3.75 3.749H40.25A3.75 3.75 0 0 0 44 36.246V11.75a3.75 3.75 0 0 0-1.099-2.651A3.75 3.75 0 0 0 40.25 8zM16.496 37.496v-6.249a.75.75 0 0 1 .75-.75h13.502a.75.75 0 0 1 .75.75v6.249H16.496zM10.35 21.748c.322-.111.614-.295.853-.537a2.2 2.2 0 0 0 .527-.86l.349-1.071c.03-.081.084-.151.154-.2a.42.42 0 0 1 .489 0 .42.42 0 0 1 .155.2l.348 1.071a2.2 2.2 0 0 0 .534.864c.243.242.539.425.865.533l1.071.348.022.006a.42.42 0 0 1 .2.154c.051.072.078.157.078.245a.42.42 0 0 1-.278.398l-1.072.349a2.2 2.2 0 0 0-.865.533 2.21 2.21 0 0 0-.536.864l-.349 1.071a.42.42 0 0 1-.399.278.42.42 0 0 1-.244-.078c-.071-.049-.125-.119-.155-.2l-.348-1.071a2.2 2.2 0 0 0-1.399-1.403l-1.071-.348c-.083-.029-.154-.083-.205-.154a.42.42 0 0 1 0-.489c.051-.072.122-.126.205-.155l1.071-.348z" fill="#212121"/></svg>