<svg xmlns="http://www.w3.org/2000/svg" width="24" height="24" fill="none" xmlns:v="https://vecta.io/nano"><path d="M13.75 4.5A3.25 3.25 0 0 1 17 7.75v.173l3.864-2.318A.75.75 0 0 1 22 6.248V17.75a.75.75 0 0 1-1.136.643L17 16.075v.175a3.25 3.25 0 0 1-3.25 3.25h-8.5A3.25 3.25 0 0 1 2 16.25v-8.5A3.25 3.25 0 0 1 5.25 4.5h8.5zm0 1.5h-8.5A1.75 1.75 0 0 0 3.5 7.75v8.5A1.75 1.75 0 0 0 5.25 18h8.5a1.75 1.75 0 0 0 1.75-1.75v-8.5A1.75 1.75 0 0 0 13.75 6zm6.75 1.573L17 9.675v4.651l3.5 2.1V7.573z" fill="#212121"/></svg>